<?xml version="1.0" standalone="no"?>
<!DOCTYPE svg PUBLIC "-//W3C//DTD SVG 20010904//EN"
 "http://www.w3.org/TR/2001/REC-SVG-20010904/DTD/svg10.dtd">
<svg version="1.0" xmlns="http://www.w3.org/2000/svg"
 width="700.000000pt" height="700.000000pt" viewBox="0 0 700.000000 700.000000"
 preserveAspectRatio="xMidYMid meet">
<metadata>
Created by potrace 1.11, written by Peter Selinger 2001-2013
</metadata>
<g transform="translate(0.000000,700.000000) scale(0.100000,-0.100000)"
fill="#000000" stroke="none">
<path d="M4197 5999 c-68 -16 -337 -152 -521 -263 -165 -99 -444 -280 -456
-296 -6 -8 -92 -66 -105 -71 -10 -4 -125 -82 -312 -213 -53 -38 -73 -45 -145
-55 -94 -14 -247 -50 -340 -82 -159 -53 -329 -165 -435 -286 -53 -61 -170
-223 -161 -223 2 0 39 42 82 94 188 225 338 316 656 399 147 38 170 41 170 21
0 -9 -24 -39 -52 -66 -235 -218 -629 -457 -911 -553 l-117 -40 -34 -80 c-18
-44 -50 -129 -71 -190 -33 -94 -46 -118 -90 -165 -74 -79 -137 -199 -147 -280
-2 -15 -11 -27 -23 -31 -11 -3 39 -8 111 -12 222 -11 310 -41 351 -120 29 -57
0 -181 -56 -231 -38 -34 -205 -20 -425 35 -90 23 -112 19 -37 -6 l51 -17 0
-88 c0 -52 6 -105 15 -130 8 -23 15 -70 15 -105 0 -175 67 -631 120 -817 18
-63 90 -111 291 -195 459 -190 880 -277 1494 -308 196 -10 489 13 757 60 423
73 982 278 1439 524 148 80 313 183 325 202 11 18 4 327 -10 449 -18 151 -42
315 -62 430 -18 97 -75 364 -79 368 -1 2 -58 -24 -126 -56 -156 -75 -387 -168
-549 -221 -128 -42 -353 -105 -416 -117 -19 -3 -33 -9 -30 -11 2 -3 51 3 108
12 l104 17 62 -31 62 -31 0 -63 0 -62 -111 -36 -110 -36 3 75 3 75 -85 26
c-47 14 -88 29 -91 33 -3 4 -54 -1 -115 -12 -236 -45 -501 -44 -713 2 l-106
22 61 7 c197 23 334 212 334 460 0 154 -44 276 -133 376 -48 55 -48 56 -8 18
24 -22 56 -60 72 -84 16 -25 37 -46 46 -48 44 -9 597 -3 650 6 32 6 67 10 78
10 11 -1 58 2 105 5 47 4 102 8 123 9 36 2 39 4 62 61 13 32 28 63 34 69 5 5
-1 -17 -14 -49 -31 -79 -38 -145 -25 -229 28 -175 137 -295 267 -295 102 1
194 78 234 197 18 54 21 82 17 166 -4 117 -28 183 -94 258 -35 40 -35 41 -5
14 42 -38 79 -100 102 -173 10 -31 18 -50 18 -40 1 13 7 15 28 9 25 -7 29 -16
57 -127 22 -85 35 -119 46 -119 8 0 21 -11 28 -25 12 -24 12 -23 7 10 -4 19
-15 62 -25 95 -10 33 -25 92 -34 130 -8 39 -24 100 -35 138 -11 37 -16 67 -12
67 4 0 20 -42 35 -92 37 -121 46 -149 57 -173 9 -22 63 -248 73 -310 14 -80
14 -81 50 -46 84 81 105 204 67 381 -41 187 -143 335 -278 402 -36 17 -67 37
-68 42 -95 316 -202 590 -307 786 -121 225 -268 467 -310 511 -7 8 -41 48 -75
90 -80 99 -192 202 -249 229 -53 26 -105 32 -157 19z m553 -1404 c0 -13 -65
-65 -82 -65 -3 0 -55 -30 -113 -67 -59 -38 -116 -74 -128 -81 -37 -22 -140 -5
-262 43 -165 64 -244 79 -389 72 -67 -4 -148 -13 -181 -21 -77 -20 -83 -13 -8
9 152 45 278 56 373 34 25 -6 106 -34 180 -64 182 -72 213 -76 293 -37 34 17
93 57 131 88 66 55 146 102 174 103 6 1 12 -6 12 -14z m579 -355 c0 -17 -23
34 -33 71 -3 13 3 6 13 -16 11 -22 20 -47 20 -55z m88 -23 c49 -37 54 -54 17
-63 -19 -5 -32 0 -56 22 -21 20 -29 23 -25 12 4 -10 3 -18 -2 -18 -5 0 -11 9
-14 20 -3 11 -2 20 3 20 4 0 5 12 2 27 -4 22 -2 25 14 19 10 -4 38 -21 61 -39z
m-297 -15 c82 -50 140 -167 140 -279 l0 -53 -39 0 -38 0 -6 60 c-7 86 -54 180
-108 219 -129 94 -269 -28 -269 -234 0 -77 -13 -99 -25 -44 -11 48 5 149 32
210 63 144 194 194 313 121z m-1747 1 c-7 -2 -19 -2 -25 0 -7 3 -2 5 12 5 14
0 19 -2 13 -5z m145 -67 c60 -30 122 -90 158 -151 29 -50 64 -162 64 -205 0
-24 -3 -25 -47 -25 -43 1 -48 4 -51 26 -23 210 -184 366 -328 319 -87 -28
-148 -101 -189 -223 -22 -65 -26 -93 -24 -165 3 -64 0 -87 -10 -90 -23 -8 -31
20 -30 108 0 140 23 213 98 307 99 125 234 162 359 99z m1563 -22 c55 -54 82
-128 82 -230 0 -69 -4 -89 -29 -140 -36 -71 -79 -104 -139 -104 -63 0 -104 32
-145 115 -32 63 -35 77 -35 155 0 74 4 92 30 145 40 79 82 108 148 102 39 -3
56 -11 88 -43z m-1929 -31 c-62 -72 -85 -118 -106 -210 -29 -131 -14 -277 40
-384 14 -30 30 -56 33 -59 4 -3 21 -24 39 -47 18 -23 55 -57 83 -74 27 -18 49
-33 49 -34 0 -3 -94 30 -400 139 -177 63 -336 109 -430 127 -77 14 -315 15
-382 1 l-48 -9 0 33 c0 51 -28 170 -49 213 -50 97 -158 183 -280 222 -31 10
-48 18 -39 18 10 1 47 -10 83 -24 l65 -24 53 18 c29 10 73 22 98 26 24 4 53 9
64 12 37 8 70 12 165 22 52 6 106 13 120 16 14 3 97 5 185 5 239 -1 285 -3
285 -10 0 -4 30 -6 68 -6 37 0 108 -3 157 -7 l91 -7 49 50 c27 27 51 50 53 50
2 0 -19 -26 -46 -57z m282 -17 c197 -82 259 -445 106 -620 -92 -104 -221 -101
-318 9 -60 68 -85 139 -90 258 -3 78 0 111 17 165 45 148 175 234 285 188z
m-1826 -43 c-10 -2 -26 -2 -35 0 -10 3 -2 5 17 5 19 0 27 -2 18 -5z m67 -182
c31 -17 85 -104 73 -117 -4 -4 -23 7 -42 24 -58 51 -137 74 -239 70 -48 -1
-87 0 -87 4 0 8 87 34 135 41 49 7 128 -4 160 -22z m119 -210 c34 -38 -8 -86
-54 -61 -25 13 -27 55 -2 69 25 15 37 13 56 -8z m3521 -1041 c9 -15 -23 -49
-120 -124 -259 -201 -475 -309 -721 -361 -266 -56 -690 -33 -985 55 l-66 20
-48 97 c-54 108 -178 333 -206 374 l-18 26 45 -10 c24 -6 39 -14 33 -18 -20
-12 138 -61 242 -75 l48 -6 42 -127 c40 -119 107 -285 94 -231 -3 14 -20 78
-36 142 -17 68 -29 136 -27 160 l3 43 155 -3 c85 -2 171 -5 191 -8 l35 -5 23
-97 c26 -110 61 -215 85 -258 10 -16 14 -20 11 -9 -27 80 -57 222 -62 286 l-6
76 144 7 c79 4 177 13 217 20 l74 13 9 -24 c5 -13 20 -69 34 -124 36 -143 74
-257 87 -265 8 -5 9 -1 4 12 -4 10 -16 69 -26 129 -11 61 -25 145 -33 188 -17
92 -36 76 158 137 72 22 151 49 176 60 l47 19 11 -42 c6 -23 22 -87 36 -142
l24 -100 -5 155 -6 155 49 24 c83 40 227 128 248 151 l20 22 6 -165 c4 -91 10
-170 14 -177z"/>
<path d="M6005 4716 c-146 -46 -227 -141 -246 -287 -6 -46 -16 -93 -21 -103
-9 -16 -7 -18 9 -11 38 16 159 53 194 60 25 5 39 2 47 -8 23 -27 -52 -116
-232 -275 -33 -28 -58 -52 -55 -52 3 0 45 31 93 68 l88 69 57 -31 c48 -27 66
-31 131 -31 65 0 85 5 142 33 43 21 83 51 113 84 69 77 79 102 80 188 0 93
-18 133 -94 210 -87 89 -198 120 -306 86z m128 -38 c28 -22 32 -63 8 -87 -41
-41 -91 -20 -91 39 0 53 43 78 83 48z m94 -135 c79 -85 128 -213 61 -160 -22
17 -70 94 -85 137 -21 59 -16 65 24 23z"/>
<path d="M5695 4300 c-3 -6 1 -7 9 -4 18 7 21 14 7 14 -6 0 -13 -4 -16 -10z"/>
<path d="M458 4014 c-135 -32 -231 -111 -295 -241 -37 -75 -38 -80 -38 -187 0
-104 2 -115 32 -178 94 -200 313 -301 514 -238 95 29 160 71 221 142 63 73 81
109 99 195 11 54 10 72 -5 145 -42 195 -151 312 -335 359 -86 22 -115 23 -193
3z m141 -80 c23 -19 31 -34 31 -58 0 -65 -83 -104 -130 -61 -31 28 -28 97 6
124 35 28 56 26 93 -5z m-229 -129 c0 -4 -6 -18 -14 -33 -7 -15 -19 -52 -26
-82 -7 -30 -21 -70 -32 -87 -17 -28 -25 -33 -59 -33 -76 0 -62 52 46 168 59
64 85 84 85 67z"/>
<path d="M1038 3318 c5 -5 16 -8 23 -6 8 3 3 7 -10 11 -17 4 -21 3 -13 -5z"/>
</g>
</svg>
